<svg height="375pt" viewBox="0 0 375.0855 375" width="375pt" xmlns="http://www.w3.org/2000/svg"><path d="m7.734375 296.515625c-10.3125 10.3125-10.3125 27.035156 0 37.347656l33.53125 33.53125c10.320313 10.296875 27.03125 10.296875 37.351563 0l108.210937-108.210937-71.082031-70.679688zm124.300781-43.519531-24.316406 24.316406-9.898438-9.902344 24.3125-24.3125zm0 0"/><path d="m189.558594 71.015625c-1.820313-1.820313-4.289063-2.84375-6.863282-2.84375-2.574218 0-5.042968 1.023437-6.859374 2.84375l-14.382813 14.382813c-4.46875 4.484374-7.902344 9.890624-10.0625 15.839843l-27.367187 75.753907 74.464843 74.039062 75.523438-27.484375c5.875-2.148437 11.21875-5.542969 15.660156-9.949219l14.390625-14.316406c3.800781-3.777344 3.820312-9.925781.039062-13.722656zm0 0"/><path d="m282.648438 82.582031 34.367187-34.363281 9.898437 9.902344-34.367187 34.363281zm0 0"/><path d="m336.542969 133.96875 34.367187-10.738281 4.175782 13.363281-34.367188 10.738281zm0 0"/><path d="m227.796875 34.410156 10.738281-34.3671872 13.363282 4.1757812-10.738282 34.367188zm0 0"/></svg>