<svg height="390pt" viewBox="0 0 390 390.15451" width="390pt" xmlns="http://www.w3.org/2000/svg"><path d="m203.785156 267.15625v.070312l-113.140625 113.144532c-13.046875 13.046875-34.199219 13.046875-47.246093 0l-33.527344-33.53125c-13.050782-13.046875-13.050782-34.199219-.007813-47.246094h.007813l113.140625-113.140625.117187.042969-.117187.347656zm0 0" fill="#e48e66"/><path d="m166.027344 229.617188-43.023438-42.78125.121094-.347657-.121094-.042969-113.140625 113.140626c-13.046875 13.042968-13.050781 34.195312-.003906 47.246093l19.476563 19.476563zm0 0" fill="#d18162"/><path d="m316.105469 188.617188c6.523437 6.515624 6.53125 17.089843.011719 23.617187l-.042969.042969-14.390625 14.308594c-5.15625 5.132812-11.371094 9.082031-18.207032 11.570312l-79.691406 29-80.78125-80.320312.121094-.347657 28.75-79.601562c2.5-6.921875 6.496094-13.207031 11.699219-18.410157l14.382812-14.378906c6.515625-6.527344 17.089844-6.53125 23.613281-.015625zm0 0" fill="#f8ec7d"/><path d="m109.84375 290.386719c-4.042969 0-7.691406-2.4375-9.238281-6.175781-1.546875-3.734376-.691407-8.035157 2.167969-10.894532l24.320312-24.320312c3.90625-3.90625 10.238281-3.90625 14.140625-.003906 3.90625 3.90625 3.90625 10.238281.003906 14.144531l-24.320312 24.320312c-1.875 1.878907-4.417969 2.933594-7.074219 2.929688zm0 0" fill="#ba725b"/><g fill="#d18162"><path d="m294.675781 105.554688c-4.046875 0-7.691406-2.4375-9.238281-6.171876-1.546875-3.738281-.691406-8.039062 2.167969-10.898437l34.359375-34.359375c3.90625-3.90625 10.238281-3.902344 14.140625 0 3.90625 3.90625 3.90625 10.238281 0 14.144531l-34.359375 34.359375c-1.875 1.878906-4.417969 2.929688-7.070313 2.925782zm0 0"/><path d="m345.703125 158.679688c-4.945313 0-9.144531-3.609376-9.890625-8.492188-.746094-4.886719 2.191406-9.585938 6.910156-11.054688l34.371094-10.742187c5.269531-1.648437 10.878906 1.289063 12.527344 6.5625 1.644531 5.273437-1.292969 10.878906-6.5625 12.527344l-34.371094 10.738281c-.964844.304688-1.972656.460938-2.984375.460938zm0 0"/><path d="m241.558594 54.527344c-3.179688 0-6.171875-1.515625-8.054688-4.078125-1.886718-2.5625-2.441406-5.867188-1.492187-8.90625l10.738281-34.371094c1.5625-5.296875 7.125-8.324219 12.421875-6.765625 5.296875 1.5625 8.328125 7.125 6.765625 12.421875-.03125.101563-.0625.207031-.101562.308594l-10.738282 34.371093c-1.300781 4.175782-5.167968 7.019532-9.539062 7.019532zm0 0"/></g><path d="m261.566406 134.078125-59.980468-59.980469c-6.519532-6.527344-17.09375-6.53125-23.617188-.015625l-.011719.015625-14.382812 14.378906c-5.203125 5.203126-9.199219 11.488282-11.699219 18.410157l-28.75 79.601562-.121094.347657 43.023438 42.78125zm0 0" fill="#e2d574"/></svg>